<svg width="80" height="80" fill="none" xmlns="http://www.w3.org/2000/svg"><g><path d="M0 0h80v80H0V0z" fill="#4A4797"/><path d="M28.571 53.857l20.286 1.715S56.285 64.142 56 66c-.286 1.857 1.714 10.714-2 12.572-3.715 1.857-15.429-2-17.286-2.43-1.857-.428-7.857 2.43-11.857-2.713-4-5.429-1-2.143-1-4.858-.286-2.714 4.714-14.714 4.714-14.714z" fill="#555659"/><path d="M53.286 53.714c-.572.143-.857.286-.857.429 0 .428.571.143 2.428 1-2.503.725-5.12.968-7.714.714a8.254 8.254 0 0 0 .714-2c.179-.355.276-.745.286-1.143 2-.285 1.143-.571 3.286-.857 0-.143.857-.143.857-.286-.286-.142 1.285-.428 1-.428a8.738 8.738 0 0 1-.857-.572 21.014 21.014 0 0 0 10-11.571c-4.572-.714-6.429-2.286-7.143-5.571A9.672 9.672 0 0 0 46.429 36c-.143-.714-.143-1.286-.286-2C44 37.429 43.429 38 42 38.286a27.058 27.058 0 0 1-2.429-7.715c-.714 3.286-.714 5.286-2.142 8.143C36.143 38.43 35 37.286 32.857 34a11.2 11.2 0 0 0-.286 2 8.686 8.686 0 0 0-8.428-2c-.714 3.286-.714 4.571-5.286 5.429 1.857 5.142 4.429 8.714 9.143 11.285-.4.25-.833.442-1.286.572-.285.143-.428.428-.714.571 0 .143-1.143-.571-1.143-.428 1.857.285 4 1 5.857 1.428.179.355.277.746.286 1.143.151.695.391 1.367.714 2A20.527 20.527 0 0 1 24 55.286c2.429-.286 2.429-.572 2.429-1 0-.143 0-.572-.715-.715-8.143-.857-11.714-7.428-13.428-10.285 1.714.714 2.571 1.285 2.857.857.286-.429.286-.572-.286-1-1.714-1.714-2.571-7.286-2.857-9.714 1.143.428 3.143 1.428 5 .857 2.286-.715 4.143-2.715 5.429-6 .142 0 .285.143.428.143l.429-.858a1.214 1.214 0 0 0 0-1A23.114 23.114 0 0 1 21.714 19c.135-1.01.326-2.011.572-3 1.57.77 2.94 1.895 4 3.286.58.701 1.2 1.37 1.857 2 1 1 2.857 1.428 3.143 0 .143-.429-.286-.857-.572-1.286a.143.143 0 0 1-.143-.143C32.143 19.286 35.857 18 39 18.714h.429c.142 0 .285.143.428 0a18.485 18.485 0 0 1 9.143.429l.714 1.143c-.285.428-1 .857-.857 1.143.429.571.572.857 1.572-.286A24.83 24.83 0 0 1 52.286 19a15.814 15.814 0 0 1 5.428-4c.143.857.429 3.571.429 4.286a17.887 17.887 0 0 1-1.572 7.143c-.142.285-.714.714-.571 1.142.143.429 0 0 .143.286.143 0 .571.286.714.286l-.143.286c1.286 3.285 3 4.714 5.286 5.428 1.884.403 3.85.15 5.571-.714-.285 2.286-2.142 8.286-4 10.143-.428.428-.428.857-.285 1 .143.143 1.571-.572 3.428-1.286C65.43 47 60 52.714 53.286 53.714z" fill="#C3C2CE"/><path d="M66.714 37.714a3.843 3.843 0 0 1-1.857 1.857V37c-2.571.286-7 .571-7.571-5.429h-.143a8.243 8.243 0 0 0-3.715-1.285c-.428 0-.857-.143-1.142-.143l1-1.714s-5.858-.286-9 3.142c-.429.429 0-2.142 0-2.142a12.327 12.327 0 0 0-4.143 2.142l-.572 2.143L39 31.571a12.327 12.327 0 0 0-4.143-2.142s.429 2.428 0 2.142c-3.286-3.428-9-3.142-9-3.142l1 1.714a3.145 3.145 0 0 0-1.143.143c-1.296.235-2.55.669-3.714 1.285h-.143c-.571 6-5 5.715-7.571 5.429v2.571a3.156 3.156 0 0 1-1.857-1.857l-.143.715.143.857c3.857 8.428 7.857 9.714 14 11.143l1.857.142 2.428 1.286.286 1.714c.571 2.143 1.428 2.715 3.286 4.143l.714.572 2.143-1.143 2.285-.286 2.286.286L43.43 58l.857.286a8.572 8.572 0 0 0 3.571-4.715l.286-1.714 2.428-1.286 1.858-.142c6.142-1.572 10.714-3.715 14.428-12.286l-.143-.429z" fill="#fff"/><path d="M38.286 49.143a3.814 3.814 0 0 1 3.286.143A1.429 1.429 0 0 1 42 51.714l-.142.143c-1.715 2.286-2.858 1.714-4.43-.428a1.244 1.244 0 0 1 .43-1.858c0-.285.142-.285.428-.428z" fill="#1E1E40"/><path d="M67.143 41.857c-.429.143-.857.429-1.286.572a30.173 30.173 0 0 0 2.429-9.715l.143-1.285-1 .714a7.143 7.143 0 0 1-5.143.857c-1.857-.572-3.572-2.286-4.714-5.286v-.143a.527.527 0 0 1 .142-.428 33.925 33.925 0 0 0 1.715-4.572 11.429 11.429 0 0 0-.286-8.143c-.857-1.857-.857-1.857-2.857-1.428A15.114 15.114 0 0 0 49 17.571a1.228 1.228 0 0 1-.857.429 15.714 15.714 0 0 0-8.429-.857h-.285A15.714 15.714 0 0 0 31 18a1.229 1.229 0 0 1-.857-.429A16.257 16.257 0 0 0 22.857 13c-2-.572-2-.429-2.857 1.428a11.115 11.115 0 0 0-.571 8.286c.428 1.572 1.143 2.857 1.714 4.572a.53.53 0 0 0 .143.428v.143c-1.143 2.857-2.572 4.714-4.714 5.286a6.8 6.8 0 0 1-5.143-.857l-1-.715.428 1.143a30.17 30.17 0 0 0 2.429 9.715c-.429-.143-.857-.429-1.286-.572l-1.571-.714.714 1.571C11.286 43.143 15.286 51.43 23 54c-.714.143-1.428.143-2.143.286l-2 .285 1.857 1c3.05 1 6.223 1.577 9.429 1.715.77-.016 1.536-.112 2.286-.286.305.45.693.838 1.143 1.143.32.213.653.404 1 .571H35L36.286 58c.232.11.47.206.714.286a5.714 5.714 0 0 0 4.857 0l.715-.286 1.285.714h.429a2.458 2.458 0 0 0 1-.571A8.57 8.57 0 0 0 46.429 57c.75.174 1.516.27 2.285.286a36.515 36.515 0 0 0 9.429-1.715l2.571-.857L58 54.43c-.714-.143-1.428-.143-2.143-.286 7.715-2.572 11.715-11 11.857-11.286l.715-1.571-1.286.571zm-23 15.572c-2.143-1.286-3.429-2-4.571-2-1.143 0-2.286.571-4.572 2-3.286-1.858-3.571-7.858-2-10.715.254.548.446 1.123.572 1.715A34.904 34.904 0 0 1 35 45c1-1.857 1.286-2.286 1.286-2.286 1.143-1.714 5.286-1.714 6.286 0A9.312 9.312 0 0 1 43.857 45a19.035 19.035 0 0 1 1.429 3.428c.143-.57.428-1.142.571-1.714 1.715 3 1.429 9-1.714 10.715zM30.857 43.57c-1.857-.428-2.714-1.857-3.714-2.714 2.286.286 5.857 1.143 6.571 1.857a2.657 2.657 0 0 1-2.857.857zm14.572-.857c.714-.714 4.285-1.571 6.571-1.857a7.857 7.857 0 0 1-3.714 2.714 2.743 2.743 0 0 1-2.857-.857zm7.857 11c-.572.143-1.857.286-1.714.286.142.286.857.286 3.428 1.143-2.503.725-5.12.968-7.714.714a8.256 8.256 0 0 0 .714-2c.179-.355.276-.745.286-1.143 2-.285 4-.714 6-1a3.114 3.114 0 0 1-.714-.571 8.732 8.732 0 0 1-.858-.572 21.014 21.014 0 0 0 10-11.571c-4.571-.714-6.428-2.286-7.142-5.572A9.672 9.672 0 0 0 46.714 36c-.142-.714-.142-1.286-.285-2-2.143 3.428-2.715 4-4.143 4.286a33.884 33.884 0 0 1-2.429-9.429c-.714 3.286-1 6.429-2.428 9.429-1.286-.286-1.857-.858-4.143-4.286A11.2 11.2 0 0 0 33 36a9.414 9.414 0 0 0-8.857-2.572C23.429 36.715 21.572 38.286 17 39a21.429 21.429 0 0 0 10 11.571c-.25.24-.54.433-.857.572-.286.143-.429.143-.714.285 1.857.286 3.571 1.286 5.428 1.715.143.285.715.428.715.857.15.695.39 1.367.714 2a20.531 20.531 0 0 1-7.714-.714C27 55 27 54.714 27 54.286c0-.143 0-.572-.714-.715-6.714-.857-11-6.714-12.714-9.714 1.714.714 2.571 1.286 2.857 1 .285-.286-.572-.857-1-1.428-1.429-2-2.429-7.143-2.715-9.572 1.58.67 3.33.82 5 .429 2.286-.715 4.143-2.715 5.429-6 .143 0 .286.142.429.142l.428-.857a1.214 1.214 0 0 0 0-1A23.115 23.115 0 0 1 22.43 19c.033-.768.129-1.533.285-2.286a11.042 11.042 0 0 1 4.143 3.143c.578.75 1.198 1.465 1.857 2.143A1.972 1.972 0 0 0 32 21.286c.143-.429-.286-.858-.571-1.286a.143.143 0 0 1-.143-.143c1.571-.571 5.286-1.857 8.428-1.143h.715c2.86-.457 5.792-.06 8.428 1.143h-.714c-.286.429-.714 1-.571 1.286a1.957 1.957 0 0 0 3.285.714 24.829 24.829 0 0 1 1.857-2.143 10.614 10.614 0 0 1 4.143-3.143c.157.753.252 1.518.286 2.286a20 20 0 0 1-1.571 7.572 1.215 1.215 0 0 0 0 1l.428.857c.143 0 .286-.143.429-.143 1.285 3.285 3.143 5.285 5.428 6a6.972 6.972 0 0 0 5-.429A31.429 31.429 0 0 1 64.143 43c-.429.714-1.143 1.428-1 1.571.143.143 1-.142 2.571-.857-1.571 2.857-5.714 9-12.428 10z" fill="#1E1E40"/><path d="M39.714 50.571c.71 0 1.286-.191 1.286-.428s-.575-.429-1.286-.429c-.71 0-1.285.192-1.285.429s.575.428 1.285.428z" fill="#fff"/><path d="M29.714 52.286l4 4.857a20.57 20.57 0 0 1 3.286 6C38.286 67.286 39.143 66 39.857 72l-.143 7-8.857-.571s-1.143-.572-7.428-14.572c-.429-1-2-10.571-2-10.571l6.285-.857h2v-.143z" fill="#4A4797"/><path d="M29.857 51.714c-.143.572-.143 1-.286 1.572l3.572 4.428L34 59a15.172 15.172 0 0 1 2.286 4.571C36.714 65 37.428 66.43 38 68.143c.286.714 1.286 2.428 1.571 3.428.286-.428.286-1.714.572-2.142-.143-.429-.857-1.143-1-1.572a45.94 45.94 0 0 1-1.715-4.428 18.114 18.114 0 0 0-2.428-5 9.993 9.993 0 0 1-.857-1.286L29.857 52v-.286z" fill="#1E1E40"/><path d="M78.143 70.714c.143-5-1.428-5.714-5.143-8.857C69.572 59 62.286 57.43 62.286 57.43c0-.858.572-5.143.714-5.858 1-3.571.572-3.857.572-3.857-3.416.09-6.813.52-10.143 1.286a84.097 84.097 0 0 1-9.286 1L45 54.429H41.43l.143 8.857-2 10.857S39 82 37.143 78.857c-1.714-2.857-1.714-2.428-3-4.714-3.285-5.143-2-2.714-7.143-10.714-.857-1.286 3.715-3.143 3.429-4.572L29.572 56 30 52.429l-11.714-2 .286 1.285c.172.828.41 1.64.714 2.429.429 1.143 1 2.286 1.572 3.571l.428.857s-10.857-.142-14.857 6a20.786 20.786 0 0 0-3 5.572 16.143 16.143 0 0 0-.572 7.143l1.429 1.428 43.143.715L77.715 78c0 .143.285-3.714.428-7.286z" fill="#2E2C55"/><path d="M39 80.714L2 78.857c-.032-3.1.11-6.2.429-9.286a14.914 14.914 0 0 1 3.143-5.142c4.857-5.429 12-6.429 14.57-6.572a26.982 26.982 0 0 1-1.57-3.571c-.286-.857-.43-1.572-.715-2.429l-.428-2.286 13.143 2.286L30 56l.714 2.857c.286 1.143-.857 2-1.857 2.857-.428.429-1.428 1.143-1.428 1.429.571 1.143 3.143 4.714 5.285 7.857l1.858 2.714A48.564 48.564 0 0 1 37.142 78c.715 1.286 1.572-.429 1.572-.429L38.572 74l2-10.857.142-9.429h3.572l-.857-4.428h.857a82.46 82.46 0 0 0 9-1A46.434 46.434 0 0 1 63.429 47h.142l.143.143c.429.286.715 1-.285 4.571-.143.715-.572 3.857-.715 5.143 1.715.429 7.429 1.714 10.429 4.429 3.857 3.428 5.714 5 5.286 10.143-.572 9.285-.143 7.714-.143 7.714L39 80.714zm3.286-25.571l-.143 8.143L40.429 78l17.285-.143 17.143-.143 2.572-.285v-6.286c.142-5-1.429-5.714-5-8.714-3.286-2.715-10.286-4.286-10.286-4.286L61.714 58v-.571c0-1 .572-5.286.715-6.143.27-.935.461-1.89.571-2.857a49.991 49.991 0 0 0-9.428 1.285c-2.839.48-5.7.813-8.572 1l.857 4.429h-3.571zM3.57 78.286l22 .571c-.142-.286 13.572 2.572 8-4.428l-1.857-2.715C29.43 68.286 27 65 26.43 63.857c-.572-1.143.571-2.143 1.714-3.143.571-.428 1.571-1.285 1.428-1.571L28.715 56 29 52.857l-10.143-1.714.143.428c.143.715.429 1.572.572 2.286.404 1.194.93 2.343 1.57 3.429l1 1.857H21c-1 0-8.286.286-13.143 4.857a15.3 15.3 0 0 0-4 5.857 6.286 6.286 0 0 0-.286 2.286 36.386 36.386 0 0 0 0 6.143z" fill="#1E1E40"/><path d="M24.857 61a.529.529 0 0 1-.428-.143 5.272 5.272 0 0 0-4-1.857.772.772 0 0 1-.715-.714.673.673 0 0 1 .715-.715 7.143 7.143 0 0 1 4.857 2.143c.285.286.285.715 0 .857C25 60.714 25 61 24.857 61zm-9.285 18.143c-.43 0-.715-.286-.572-.715 0 0 .286-5.285.143-7 0-.285.143-.714.571-.714.429 0 .715.143.715.572.117 2.429.069 4.863-.143 7.285a.943.943 0 0 1-.715.572zm50.142 0a1.543 1.543 0 0 1-1-.429c-1-.857-1.285-3.285-.857-6.714 0-.286.429-.572.715-.572.285 0 .57.43.57.715-.428 4.143.144 5.285.43 5.571.285.286.142.143.285.143s.715.143.715.429c0 .285-.143.714-.572.714-.143.143-.143.143-.286.143zm-17.571-15a.527.527 0 0 1-.429-.143c-.285-.286-.285-.714 0-.857C55 56.57 62.143 56.857 62.43 56.857a.647.647 0 0 1-.143 1.286A21.3 21.3 0 0 0 48.429 64c0 .143-.143.143-.286.143z" fill="#1E1E40"/><path d="M47.286 60.714c-.286 0-.572-.143-.572-.428a.643.643 0 0 1 .429-.857A37.556 37.556 0 0 1 62 56.857a.647.647 0 0 1-.143 1.286c-4.87-.06-9.71.762-14.286 2.428a.443.443 0 0 1-.285.143z" fill="#1E1E40"/></g></svg>
